<svg xmlns="http://www.w3.org/2000/svg" width="1280" height="720" aria-labelledby="title desc" role="img" viewBox="0 0 1280 720"><title id="title">Project overview example</title><desc id="desc">A simplified project overview screen with financial summary, schedule, team, and documents sections.</desc><rect width="1280" height="720" fill="#f4f4f5"/><rect width="1184" height="632" x="48" y="44" fill="#fff" stroke="#d4d4d8" rx="12"/><rect width="1184" height="72" x="48" y="44" fill="#18181b" rx="12"/><text x="84" y="89" fill="#fff" font-family="Arial, sans-serif" font-size="24" font-weight="700">Project Overview</text><rect width="336" height="140" x="84" y="156" fill="#fafafa" stroke="#e4e4e7" rx="8"/><rect width="336" height="140" x="472" y="156" fill="#fafafa" stroke="#e4e4e7" rx="8"/><rect width="336" height="140" x="860" y="156" fill="#fafafa" stroke="#e4e4e7" rx="8"/><text x="112" y="196" fill="#18181b" font-family="Arial, sans-serif" font-size="18" font-weight="700">Financial Summary</text><text x="500" y="196" fill="#18181b" font-family="Arial, sans-serif" font-size="18" font-weight="700">Schedule</text><text x="888" y="196" fill="#18181b" font-family="Arial, sans-serif" font-size="18" font-weight="700">Project Team</text><rect width="240" height="12" x="112" y="224" fill="#22c55e" rx="6"/><rect width="228" height="12" x="500" y="224" fill="#0ea5e9" rx="6"/><rect width="196" height="12" x="888" y="224" fill="#a1a1aa" rx="6"/><rect width="532" height="260" x="84" y="336" fill="#fafafa" stroke="#e4e4e7" rx="8"/><rect width="532" height="260" x="664" y="336" fill="#fafafa" stroke="#e4e4e7" rx="8"/><text x="112" y="378" fill="#18181b" font-family="Arial, sans-serif" font-size="18" font-weight="700">Contract Documents</text><text x="692" y="378" fill="#18181b" font-family="Arial, sans-serif" font-size="18" font-weight="700">Recent Activity</text><rect width="448" height="36" x="112" y="412" fill="#fff" stroke="#e4e4e7" rx="6"/><rect width="448" height="36" x="112" y="468" fill="#fff" stroke="#e4e4e7" rx="6"/><rect width="448" height="18" x="692" y="412" fill="#d4d4d8" rx="9"/><rect width="392" height="18" x="692" y="460" fill="#d4d4d8" rx="9"/><rect width="420" height="18" x="692" y="508" fill="#d4d4d8" rx="9"/></svg>