<svg xmlns="http://www.w3.org/2000/svg" width="1280" height="720" viewBox="0 0 1280 720" role="img" aria-labelledby="title desc">
  <title id="title">Project overview example</title>
  <desc id="desc">A simplified project overview screen with financial summary, schedule, team, and documents sections.</desc>
  <rect width="1280" height="720" fill="#f4f4f5"/>
  <rect x="48" y="44" width="1184" height="632" rx="12" fill="#ffffff" stroke="#d4d4d8"/>
  <rect x="48" y="44" width="1184" height="72" rx="12" fill="#18181b"/>
  <text x="84" y="89" fill="#ffffff" font-family="Arial, sans-serif" font-size="24" font-weight="700">Project Overview</text>
  <rect x="84" y="156" width="336" height="140" rx="8" fill="#fafafa" stroke="#e4e4e7"/>
  <rect x="472" y="156" width="336" height="140" rx="8" fill="#fafafa" stroke="#e4e4e7"/>
  <rect x="860" y="156" width="336" height="140" rx="8" fill="#fafafa" stroke="#e4e4e7"/>
  <text x="112" y="196" fill="#18181b" font-family="Arial, sans-serif" font-size="18" font-weight="700">Financial Summary</text>
  <text x="500" y="196" fill="#18181b" font-family="Arial, sans-serif" font-size="18" font-weight="700">Schedule</text>
  <text x="888" y="196" fill="#18181b" font-family="Arial, sans-serif" font-size="18" font-weight="700">Project Team</text>
  <rect x="112" y="224" width="240" height="12" rx="6" fill="#22c55e"/>
  <rect x="500" y="224" width="228" height="12" rx="6" fill="#0ea5e9"/>
  <rect x="888" y="224" width="196" height="12" rx="6" fill="#a1a1aa"/>
  <rect x="84" y="336" width="532" height="260" rx="8" fill="#fafafa" stroke="#e4e4e7"/>
  <rect x="664" y="336" width="532" height="260" rx="8" fill="#fafafa" stroke="#e4e4e7"/>
  <text x="112" y="378" fill="#18181b" font-family="Arial, sans-serif" font-size="18" font-weight="700">Contract Documents</text>
  <text x="692" y="378" fill="#18181b" font-family="Arial, sans-serif" font-size="18" font-weight="700">Recent Activity</text>
  <rect x="112" y="412" width="448" height="36" rx="6" fill="#ffffff" stroke="#e4e4e7"/>
  <rect x="112" y="468" width="448" height="36" rx="6" fill="#ffffff" stroke="#e4e4e7"/>
  <rect x="692" y="412" width="448" height="18" rx="9" fill="#d4d4d8"/>
  <rect x="692" y="460" width="392" height="18" rx="9" fill="#d4d4d8"/>
  <rect x="692" y="508" width="420" height="18" rx="9" fill="#d4d4d8"/>
</svg>
